solid all the parts TOGETHER
facet normal 0.0 0.0 -1.0
  outer loop
    vertex 79.8222856928091 -59.182663918001154 2.5
    vertex 73.32228569280912 -60.26054141800115 2.5
    vertex 73.32228569280912 -59.182663918001154 2.5
  endloop
endfacet
facet normal 0.0 0.0 -1.0
  outer loop
    vertex 73.32228569280912 -60.26054141800115 2.5
    vertex 79.8222856928091 -59.182663918001154 2.5
    vertex 73.77326597322418 -60.319914098280464 2.5
  endloop
endfacet
facet normal 0.0 0.0 -1.0
  outer loop
    vertex 73.77326597322418 -60.319914098280464 2.5
    vertex 79.8222856928091 -59.182663918001154 2.5
    vertex 74.19351269280911 -60.49398598907535 2.5
  endloop
endfacet
facet normal 0.0 0.0 -1.0
  outer loop
    vertex 74.19351269280911 -60.49398598907535 2.5
    vertex 79.8222856928091 -59.182663918001154 2.5
    vertex 74.55438673211474 -60.77089437869552 2.5
  endloop
endfacet
facet normal 0.0 0.0 -1.0
  outer loop
    vertex 74.55438673211474 -60.77089437869552 2.5
    vertex 79.8222856928091 -59.182663918001154 2.5
    vertex 74.83129512173493 -61.13176841800115 2.5
  endloop
endfacet
facet normal 0.0 0.0 -1.0
  outer loop
    vertex 74.83129512173493 -61.13176841800115 2.5
    vertex 79.8222856928091 -59.182663918001154 2.5
    vertex 75.0053670125298 -61.552015137586096 2.5
  endloop
endfacet
facet normal 0.0 0.0 -1.0
  outer loop
    vertex 75.0053670125298 -61.552015137586096 2.5
    vertex 79.8222856928091 -59.182663918001154 2.5
    vertex 75.06473969280911 -62.002995418001156 2.5
  endloop
endfacet
facet normal 0.0 0.0 -1.0
  outer loop
    vertex 73.77326597322418 -63.68607673772184 2.5
    vertex 73.32228569280912 -66.82332691800119 2.5
    vertex 73.32228569280912 -63.74544941800116 2.5
  endloop
endfacet
facet normal 0.0 0.0 -1.0
  outer loop
    vertex 73.32228569280912 -66.82332691800119 2.5
    vertex 73.77326597322418 -63.68607673772184 2.5
    vertex 79.8222856928091 -66.82332691800119 2.5
  endloop
endfacet
facet normal 0.0 0.0 -1.0
  outer loop
    vertex 79.8222856928091 -66.82332691800119 2.5
    vertex 73.77326597322418 -63.68607673772184 2.5
    vertex 74.19351269280911 -63.512004846926956 2.5
  endloop
endfacet
facet normal 0.0 0.0 -1.0
  outer loop
    vertex 79.8222856928091 -66.82332691800119 2.5
    vertex 74.19351269280911 -63.512004846926956 2.5
    vertex 74.55438673211474 -63.23509645730678 2.5
  endloop
endfacet
facet normal 0.0 0.0 -1.0
  outer loop
    vertex 79.8222856928091 -66.82332691800119 2.5
    vertex 74.55438673211474 -63.23509645730678 2.5
    vertex 74.83129512173493 -62.87422241800115 2.5
  endloop
endfacet
facet normal 0.0 0.0 -1.0
  outer loop
    vertex 79.8222856928091 -66.82332691800119 2.5
    vertex 74.83129512173493 -62.87422241800115 2.5
    vertex 75.0053670125298 -62.45397569841621 2.5
  endloop
endfacet
facet normal 0.0 0.0 -1.0
  outer loop
    vertex 79.8222856928091 -66.82332691800119 2.5
    vertex 75.0053670125298 -62.45397569841621 2.5
    vertex 75.06473969280911 -62.002995418001156 2.5
  endloop
endfacet
facet normal 0.0 0.0 -1.0
  outer loop
    vertex 79.8222856928091 -66.82332691800119 2.5
    vertex 75.06473969280911 -62.002995418001156 2.5
    vertex 79.8222856928091 -59.182663918001154 2.5
  endloop
endfacet
facet normal 0.25881904510253206 -0.9659258262890653 0.0
  outer loop
    vertex 73.77326597322418 -63.68607673772184 2.5
    vertex 73.32228569280912 -63.74544941800116 0.0
    vertex 73.77326597322418 -63.68607673772184 0.0
  endloop
endfacet
facet normal 0.13052619222006953 -0.9914448613738082 0.0
  outer loop
    vertex 73.32228569280912 -63.74544941800116 0.0
    vertex 73.77326597322418 -63.68607673772184 2.5
    vertex 73.32228569280912 -63.74544941800116 2.5
  endloop
endfacet
facet normal 0.4999999999999914 -0.8660254037844437 0.0
  outer loop
    vertex 74.19351269280911 -63.512004846926956 2.5
    vertex 73.77326597322418 -63.68607673772184 0.0
    vertex 74.19351269280911 -63.512004846926956 0.0
  endloop
endfacet
facet normal 0.25881904510253206 -0.9659258262890653 0.0
  outer loop
    vertex 73.77326597322418 -63.68607673772184 0.0
    vertex 74.19351269280911 -63.512004846926956 2.5
    vertex 73.77326597322418 -63.68607673772184 2.5
  endloop
endfacet
facet normal 0.7071067811865405 -0.7071067811865545 0.0
  outer loop
    vertex 74.55438673211474 -63.23509645730678 2.5
    vertex 74.19351269280911 -63.512004846926956 0.0
    vertex 74.55438673211474 -63.23509645730678 0.0
  endloop
endfacet
facet normal 0.4999999999999914 -0.8660254037844437 0.0
  outer loop
    vertex 74.19351269280911 -63.512004846926956 0.0
    vertex 74.55438673211474 -63.23509645730678 2.5
    vertex 74.19351269280911 -63.512004846926956 2.5
  endloop
endfacet
facet normal 0.8660254037844412 -0.4999999999999959 0.0
  outer loop
    vertex 74.83129512173493 -62.87422241800115 0.0
    vertex 74.55438673211474 -63.23509645730678 2.5
    vertex 74.55438673211474 -63.23509645730678 0.0
  endloop
endfacet
facet normal 0.7071067811865405 -0.7071067811865545 0.0
  outer loop
    vertex 74.55438673211474 -63.23509645730678 2.5
    vertex 74.83129512173493 -62.87422241800115 0.0
    vertex 74.83129512173493 -62.87422241800115 2.5
  endloop
endfacet
facet normal 0.9659258262890695 -0.25881904510251563 0.0
  outer loop
    vertex 75.0053670125298 -62.45397569841621 0.0
    vertex 74.83129512173493 -62.87422241800115 2.5
    vertex 74.83129512173493 -62.87422241800115 0.0
  endloop
endfacet
facet normal 0.8660254037844412 -0.4999999999999959 0.0
  outer loop
    vertex 74.83129512173493 -62.87422241800115 2.5
    vertex 75.0053670125298 -62.45397569841621 0.0
    vertex 75.0053670125298 -62.45397569841621 2.5
  endloop
endfacet
facet normal 1.0 0.0 0.0
  outer loop
    vertex 75.06473969280911 -62.002995418001156 0.0
    vertex 75.0053670125298 -62.45397569841621 2.5
    vertex 75.0053670125298 -62.45397569841621 0.0
  endloop
endfacet
facet normal 0.9659258262890695 -0.25881904510251563 0.0
  outer loop
    vertex 75.0053670125298 -62.45397569841621 2.5
    vertex 75.06473969280911 -62.002995418001156 0.0
    vertex 75.06473969280911 -62.002995418001156 2.5
  endloop
endfacet
facet normal 0.9659258262890695 0.25881904510251563 0.0
  outer loop
    vertex 75.0053670125298 -61.552015137586096 0.0
    vertex 75.06473969280911 -62.002995418001156 2.5
    vertex 75.06473969280911 -62.002995418001156 0.0
  endloop
endfacet
facet normal 1.0 0.0 0.0
  outer loop
    vertex 75.06473969280911 -62.002995418001156 2.5
    vertex 75.0053670125298 -61.552015137586096 0.0
    vertex 75.0053670125298 -61.552015137586096 2.5
  endloop
endfacet
facet normal 0.8660254037844412 0.4999999999999959 0.0
  outer loop
    vertex 74.83129512173493 -61.13176841800115 0.0
    vertex 75.0053670125298 -61.552015137586096 2.5
    vertex 75.0053670125298 -61.552015137586096 0.0
  endloop
endfacet
facet normal 0.9659258262890695 0.25881904510251563 0.0
  outer loop
    vertex 75.0053670125298 -61.552015137586096 2.5
    vertex 74.83129512173493 -61.13176841800115 0.0
    vertex 74.83129512173493 -61.13176841800115 2.5
  endloop
endfacet
facet normal 0.7071067811865405 0.7071067811865545 0.0
  outer loop
    vertex 74.55438673211474 -60.77089437869552 0.0
    vertex 74.83129512173493 -61.13176841800115 2.5
    vertex 74.83129512173493 -61.13176841800115 0.0
  endloop
endfacet
facet normal 0.8660254037844412 0.4999999999999959 0.0
  outer loop
    vertex 74.83129512173493 -61.13176841800115 2.5
    vertex 74.55438673211474 -60.77089437869552 0.0
    vertex 74.55438673211474 -60.77089437869552 2.5
  endloop
endfacet
facet normal 0.4999999999999914 0.8660254037844437 0.0
  outer loop
    vertex 74.19351269280911 -60.49398598907535 2.5
    vertex 74.55438673211474 -60.77089437869552 0.0
    vertex 74.19351269280911 -60.49398598907535 0.0
  endloop
endfacet
facet normal 0.7071067811865405 0.7071067811865545 0.0
  outer loop
    vertex 74.55438673211474 -60.77089437869552 0.0
    vertex 74.19351269280911 -60.49398598907535 2.5
    vertex 74.55438673211474 -60.77089437869552 2.5
  endloop
endfacet
facet normal 0.25881904510253206 0.9659258262890653 0.0
  outer loop
    vertex 73.77326597322418 -60.319914098280464 2.5
    vertex 74.19351269280911 -60.49398598907535 0.0
    vertex 73.77326597322418 -60.319914098280464 0.0
  endloop
endfacet
facet normal 0.4999999999999914 0.8660254037844437 0.0
  outer loop
    vertex 74.19351269280911 -60.49398598907535 0.0
    vertex 73.77326597322418 -60.319914098280464 2.5
    vertex 74.19351269280911 -60.49398598907535 2.5
  endloop
endfacet
facet normal 0.13052619222006953 0.9914448613738082 -0.0
  outer loop
    vertex 73.32228569280912 -60.26054141800115 2.5
    vertex 73.77326597322418 -60.319914098280464 0.0
    vertex 73.32228569280912 -60.26054141800115 0.0
  endloop
endfacet
facet normal 0.25881904510253206 0.9659258262890653 0.0
  outer loop
    vertex 73.77326597322418 -60.319914098280464 0.0
    vertex 73.32228569280912 -60.26054141800115 2.5
    vertex 73.77326597322418 -60.319914098280464 2.5
  endloop
endfacet
facet normal 0.0 -1.0 0.0
  outer loop
    vertex 79.8222856928091 -59.182663918001154 2.5
    vertex 73.32228569280912 -59.182663918001154 0.0
    vertex 79.8222856928091 -59.182663918001154 0.0
  endloop
endfacet
facet normal 0.0 -1.0 0.0
  outer loop
    vertex 73.32228569280912 -59.182663918001154 0.0
    vertex 79.8222856928091 -59.182663918001154 2.5
    vertex 73.32228569280912 -59.182663918001154 2.5
  endloop
endfacet
facet normal -1.0 0.0 0.0
  outer loop
    vertex 79.8222856928091 -59.182663918001154 2.5
    vertex 79.8222856928091 -66.82332691800119 0.0
    vertex 79.8222856928091 -66.82332691800119 2.5
  endloop
endfacet
facet normal -1.0 0.0 0.0
  outer loop
    vertex 79.8222856928091 -66.82332691800119 0.0
    vertex 79.8222856928091 -59.182663918001154 2.5
    vertex 79.8222856928091 -59.182663918001154 0.0
  endloop
endfacet
facet normal -0.0 1.0 -0.0
  outer loop
    vertex 64.28953743876886 -66.82332691800119 2.5
    vertex 66.8222856928091 -66.82332691800119 -4.279595
    vertex 64.28953743876886 -66.82332691800119 -4.279595
  endloop
endfacet
facet normal -0.0 1.0 -0.0
  outer loop
    vertex 66.8222856928091 -66.82332691800119 -4.279595
    vertex 64.28953743876886 -66.82332691800119 2.5
    vertex 66.8222856928091 -66.82332691800119 -3.0
  endloop
endfacet
facet normal -0.0 1.0 -0.0
  outer loop
    vertex 66.8222856928091 -66.82332691800119 -3.0
    vertex 64.28953743876886 -66.82332691800119 2.5
    vertex 66.9245082139419 -66.82332691800119 -2.2235428646924373
  endloop
endfacet
facet normal -0.0 1.0 -0.0
  outer loop
    vertex 66.9245082139419 -66.82332691800119 -2.2235428646924373
    vertex 64.28953743876886 -66.82332691800119 2.5
    vertex 67.2242094814558 -66.82332691800119 -1.4999999999999998
  endloop
endfacet
facet normal -0.0 1.0 -0.0
  outer loop
    vertex 67.2242094814558 -66.82332691800119 -1.4999999999999998
    vertex 64.28953743876886 -66.82332691800119 2.5
    vertex 67.70096534924947 -66.82332691800119 -0.8786796564403572
  endloop
endfacet
facet normal -0.0 1.0 -0.0
  outer loop
    vertex 67.70096534924947 -66.82332691800119 -0.8786796564403572
    vertex 64.28953743876886 -66.82332691800119 2.5
    vertex 68.32228569280912 -66.82332691800119 -0.40192378864668404
  endloop
endfacet
facet normal -0.0 1.0 -0.0
  outer loop
    vertex 68.32228569280912 -66.82332691800119 -0.40192378864668404
    vertex 64.28953743876886 -66.82332691800119 2.5
    vertex 69.04582855750155 -66.82332691800119 -0.10222252113279491
  endloop
endfacet
facet normal -0.0 1.0 -0.0
  outer loop
    vertex 69.04582855750155 -66.82332691800119 -0.10222252113279491
    vertex 64.28953743876886 -66.82332691800119 2.5
    vertex 69.82228569280912 -66.82332691800119 0.0
  endloop
endfacet
facet normal -0.0 1.0 -0.0
  outer loop
    vertex 69.82228569280912 -66.82332691800119 0.0
    vertex 64.28953743876886 -66.82332691800119 2.5
    vertex 79.8222856928091 -66.82332691800119 0.0
  endloop
endfacet
facet normal -0.0 1.0 -0.0
  outer loop
    vertex 79.8222856928091 -66.82332691800119 0.0
    vertex 64.28953743876886 -66.82332691800119 2.5
    vertex 79.8222856928091 -66.82332691800119 2.5
  endloop
endfacet
facet normal -0.0 1.0 -0.0
  outer loop
    vertex 79.8222856928091 -66.82332691800119 2.5
    vertex 64.28953743876886 -66.82332691800119 2.5
    vertex 73.32228569280912 -66.82332691800119 2.5
  endloop
endfacet
facet normal -0.25881904510252357 0.9659258262890674 0.0
  outer loop
    vertex 72.8736257251334 -25.60824212331316 2.5
    vertex 73.32228569280912 -25.549174918001167 0.0
    vertex 72.8736257251334 -25.60824212331316 0.0
  endloop
endfacet
facet normal -0.13052619222005712 0.9914448613738098 -0.0
  outer loop
    vertex 73.32228569280912 -25.549174918001167 0.0
    vertex 72.8736257251334 -25.60824212331316 2.5
    vertex 73.32228569280912 -25.549174918001167 2.5
  endloop
endfacet
facet normal -0.5000000000000066 0.8660254037844349 0.0
  outer loop
    vertex 72.45554119280912 -25.781418406820286 2.5
    vertex 72.8736257251334 -25.60824212331316 0.0
    vertex 72.45554119280912 -25.781418406820286 0.0
  endloop
endfacet
facet normal -0.25881904510252357 0.9659258262890674 0.0
  outer loop
    vertex 72.8736257251334 -25.60824212331316 0.0
    vertex 72.45554119280912 -25.781418406820286 2.5
    vertex 72.8736257251334 -25.60824212331316 2.5
  endloop
endfacet
facet normal -0.7071067811865492 0.7071067811865461 0.0
  outer loop
    vertex 72.09652386579683 -26.056902090988892 2.5
    vertex 72.45554119280912 -25.781418406820286 0.0
    vertex 72.09652386579683 -26.056902090988892 0.0
  endloop
endfacet
facet normal -0.5000000000000066 0.8660254037844349 0.0
  outer loop
    vertex 72.45554119280912 -25.781418406820286 0.0
    vertex 72.09652386579683 -26.056902090988892 2.5
    vertex 72.45554119280912 -25.781418406820286 2.5
  endloop
endfacet
facet normal -0.7071067811865492 0.7071067811865461 0.0
  outer loop
    vertex 72.09652386579683 -26.056902090988892 2.5
    vertex 71.82104018162823 -26.41591941800117 0.0
    vertex 71.82104018162823 -26.41591941800117 2.5
  endloop
endfacet
facet normal -0.8660254037844303 0.5000000000000145 0.0
  outer loop
    vertex 71.82104018162823 -26.41591941800117 0.0
    vertex 72.09652386579683 -26.056902090988892 2.5
    vertex 72.09652386579683 -26.056902090988892 0.0
  endloop
endfacet
facet normal -0.8660254037844303 0.5000000000000145 0.0
  outer loop
    vertex 71.82104018162823 -26.41591941800117 2.5
    vertex 71.6478638981211 -26.83400395032544 0.0
    vertex 71.6478638981211 -26.83400395032544 2.5
  endloop
endfacet
facet normal -0.9659258262890676 0.2588190451025228 0.0
  outer loop
    vertex 71.6478638981211 -26.83400395032544 0.0
    vertex 71.82104018162823 -26.41591941800117 2.5
    vertex 71.82104018162823 -26.41591941800117 0.0
  endloop
endfacet
facet normal -0.9659258262890676 0.2588190451025228 0.0
  outer loop
    vertex 71.6478638981211 -26.83400395032544 2.5
    vertex 71.58879669280911 -27.28266391800117 0.0
    vertex 71.58879669280911 -27.28266391800117 2.5
  endloop
endfacet
facet normal -1.0 0.0 0.0
  outer loop
    vertex 71.58879669280911 -27.28266391800117 0.0
    vertex 71.6478638981211 -26.83400395032544 2.5
    vertex 71.6478638981211 -26.83400395032544 0.0
  endloop
endfacet
facet normal -1.0 0.0 0.0
  outer loop
    vertex 71.58879669280911 -27.28266391800117 2.5
    vertex 71.6478638981211 -27.7313238856769 0.0
    vertex 71.6478638981211 -27.7313238856769 2.5
  endloop
endfacet
facet normal -0.9659258262890676 -0.2588190451025228 0.0
  outer loop
    vertex 71.6478638981211 -27.7313238856769 0.0
    vertex 71.58879669280911 -27.28266391800117 2.5
    vertex 71.58879669280911 -27.28266391800117 0.0
  endloop
endfacet
facet normal -0.9659258262890676 -0.2588190451025228 0.0
  outer loop
    vertex 71.6478638981211 -27.7313238856769 2.5
    vertex 71.82104018162823 -28.14940841800117 0.0
    vertex 71.82104018162823 -28.14940841800117 2.5
  endloop
endfacet
facet normal -0.8660254037844303 -0.5000000000000145 0.0
  outer loop
    vertex 71.82104018162823 -28.14940841800117 0.0
    vertex 71.6478638981211 -27.7313238856769 2.5
    vertex 71.6478638981211 -27.7313238856769 0.0
  endloop
endfacet
facet normal -0.8660254037844303 -0.5000000000000145 0.0
  outer loop
    vertex 71.82104018162823 -28.14940841800117 2.5
    vertex 72.09652386579683 -28.508425745013447 0.0
    vertex 72.09652386579683 -28.508425745013447 2.5
  endloop
endfacet
facet normal -0.7071067811865492 -0.7071067811865461 0.0
  outer loop
    vertex 72.09652386579683 -28.508425745013447 0.0
    vertex 71.82104018162823 -28.14940841800117 2.5
    vertex 71.82104018162823 -28.14940841800117 0.0
  endloop
endfacet
facet normal -0.5000000000000066 -0.8660254037844349 0.0
  outer loop
    vertex 72.45554119280912 -28.783909429182053 2.5
    vertex 72.09652386579683 -28.508425745013447 0.0
    vertex 72.45554119280912 -28.783909429182053 0.0
  endloop
endfacet
facet normal -0.7071067811865492 -0.7071067811865461 0.0
  outer loop
    vertex 72.09652386579683 -28.508425745013447 0.0
    vertex 72.45554119280912 -28.783909429182053 2.5
    vertex 72.09652386579683 -28.508425745013447 2.5
  endloop
endfacet
facet normal -0.25881904510252357 -0.9659258262890674 0.0
  outer loop
    vertex 72.8736257251334 -28.957085712689178 2.5
    vertex 72.45554119280912 -28.783909429182053 0.0
    vertex 72.8736257251334 -28.957085712689178 0.0
  endloop
endfacet
facet normal -0.5000000000000066 -0.8660254037844349 0.0
  outer loop
    vertex 72.45554119280912 -28.783909429182053 0.0
    vertex 72.8736257251334 -28.957085712689178 2.5
    vertex 72.45554119280912 -28.783909429182053 2.5
  endloop
endfacet
facet normal -0.13052619222005712 -0.9914448613738098 0.0
  outer loop
    vertex 73.32228569280912 -29.016152918001172 2.5
    vertex 72.8736257251334 -28.957085712689178 0.0
    vertex 73.32228569280912 -29.016152918001172 0.0
  endloop
endfacet
facet normal -0.25881904510252357 -0.9659258262890674 0.0
  outer loop
    vertex 72.8736257251334 -28.957085712689178 0.0
    vertex 73.32228569280912 -29.016152918001172 2.5
    vertex 72.8736257251334 -28.957085712689178 2.5
  endloop
endfacet
facet normal -0.0 1.0 -0.0
  outer loop
    vertex 66.8222856928091 -29.782663918001166 2.5
    vertex 69.82228569280912 -29.782663918001166 0.0
    vertex 66.8222856928091 -29.782663918001166 0.0
  endloop
endfacet
facet normal -0.0 1.0 -0.0
  outer loop
    vertex 69.82228569280912 -29.782663918001166 0.0
    vertex 66.8222856928091 -29.782663918001166 2.5
    vertex 73.32228569280912 -29.782663918001166 0.0
  endloop
endfacet
facet normal -0.0 1.0 -0.0
  outer loop
    vertex 73.32228569280912 -29.782663918001166 0.0
    vertex 66.8222856928091 -29.782663918001166 2.5
    vertex 73.32228569280912 -29.782663918001166 2.5
  endloop
endfacet
facet normal -1.0 0.0 0.0
  outer loop
    vertex 66.8222856928091 -29.782663918001166 2.5
    vertex 66.8222856928091 -59.182663918001154 0.0
    vertex 66.8222856928091 -59.182663918001154 2.5
  endloop
endfacet
facet normal -1.0 0.0 0.0
  outer loop
    vertex 66.8222856928091 -59.182663918001154 0.0
    vertex 66.8222856928091 -29.782663918001166 2.5
    vertex 66.8222856928091 -59.182663918001154 -3.0
  endloop
endfacet
facet normal -1.0 0.0 0.0
  outer loop
    vertex 66.8222856928091 -59.182663918001154 -3.0
    vertex 66.8222856928091 -29.782663918001166 2.5
    vertex 66.8222856928091 -59.182663918001154 -4.279595
  endloop
endfacet
facet normal -1.0 0.0 0.0
  outer loop
    vertex 66.8222856928091 -59.182663918001154 -4.279595
    vertex 66.8222856928091 -29.782663918001166 2.5
    vertex 66.8222856928091 -29.782663918001166 -4.279595
  endloop
endfacet
facet normal -1.0 0.0 0.0
  outer loop
    vertex 66.8222856928091 -29.782663918001166 -4.279595
    vertex 66.8222856928091 -29.782663918001166 2.5
    vertex 66.8222856928091 -29.782663918001166 0.0
  endloop
endfacet
facet normal -1.0 0.0 0.0
  outer loop
    vertex 66.8222856928091 -29.782663918001166 -4.279595
    vertex 66.8222856928091 -29.782663918001166 0.0
    vertex 66.8222856928091 -29.782663918001166 -3.0
  endloop
endfacet
facet normal 0.0 -1.0 0.0
  outer loop
    vertex 73.32228569280912 -59.182663918001154 2.5
    vertex 69.82228569280912 -59.182663918001154 0.0
    vertex 73.32228569280912 -59.182663918001154 0.0
  endloop
endfacet
facet normal 0.0 -1.0 0.0
  outer loop
    vertex 69.82228569280912 -59.182663918001154 0.0
    vertex 73.32228569280912 -59.182663918001154 2.5
    vertex 66.8222856928091 -59.182663918001154 0.0
  endloop
endfacet
facet normal 0.0 -1.0 0.0
  outer loop
    vertex 66.8222856928091 -59.182663918001154 0.0
    vertex 73.32228569280912 -59.182663918001154 2.5
    vertex 66.8222856928091 -59.182663918001154 2.5
  endloop
endfacet
facet normal -0.25881904510253045 0.9659258262890656 0.0
  outer loop
    vertex 72.87130541239405 -60.319914098280464 2.5
    vertex 73.32228569280912 -60.26054141800115 0.0
    vertex 72.87130541239405 -60.319914098280464 0.0
  endloop
endfacet
facet normal -0.13052619222006634 0.9914448613738086 -0.0
  outer loop
    vertex 73.32228569280912 -60.26054141800115 0.0
    vertex 72.87130541239405 -60.319914098280464 2.5
    vertex 73.32228569280912 -60.26054141800115 2.5
  endloop
endfacet
facet normal -0.4999999999999914 0.8660254037844437 0.0
  outer loop
    vertex 72.45105869280911 -60.49398598907535 2.5
    vertex 72.87130541239405 -60.319914098280464 0.0
    vertex 72.45105869280911 -60.49398598907535 0.0
  endloop
endfacet
facet normal -0.25881904510253045 0.9659258262890656 0.0
  outer loop
    vertex 72.87130541239405 -60.319914098280464 0.0
    vertex 72.45105869280911 -60.49398598907535 2.5
    vertex 72.87130541239405 -60.319914098280464 2.5
  endloop
endfacet
facet normal -0.7071067811865405 0.7071067811865545 0.0
  outer loop
    vertex 72.09018465350348 -60.77089437869552 2.5
    vertex 72.45105869280911 -60.49398598907535 0.0
    vertex 72.09018465350348 -60.77089437869552 0.0
  endloop
endfacet
facet normal -0.4999999999999914 0.8660254037844437 0.0
  outer loop
    vertex 72.45105869280911 -60.49398598907535 0.0
    vertex 72.09018465350348 -60.77089437869552 2.5
    vertex 72.45105869280911 -60.49398598907535 2.5
  endloop
endfacet
facet normal -0.7071067811865405 0.7071067811865545 0.0
  outer loop
    vertex 72.09018465350348 -60.77089437869552 2.5
    vertex 71.81327626388331 -61.13176841800115 0.0
    vertex 71.81327626388331 -61.13176841800115 2.5
  endloop
endfacet
facet normal -0.8660254037844412 0.4999999999999959 0.0
  outer loop
    vertex 71.81327626388331 -61.13176841800115 0.0
    vertex 72.09018465350348 -60.77089437869552 2.5
    vertex 72.09018465350348 -60.77089437869552 0.0
  endloop
endfacet
facet normal -0.8660254037844412 0.4999999999999959 0.0
  outer loop
    vertex 71.81327626388331 -61.13176841800115 2.5
    vertex 71.63920437308842 -61.552015137586096 0.0
    vertex 71.63920437308842 -61.552015137586096 2.5
  endloop
endfacet
facet normal -0.9659258262890695 0.25881904510251563 0.0
  outer loop
    vertex 71.63920437308842 -61.552015137586096 0.0
    vertex 71.81327626388331 -61.13176841800115 2.5
    vertex 71.81327626388331 -61.13176841800115 0.0
  endloop
endfacet
facet normal -0.9659258262890695 0.25881904510251563 0.0
  outer loop
    vertex 71.63920437308842 -61.552015137586096 2.5
    vertex 71.57983169280911 -62.002995418001156 0.0
    vertex 71.57983169280911 -62.002995418001156 2.5
  endloop
endfacet
facet normal -1.0 0.0 0.0
  outer loop
    vertex 71.57983169280911 -62.002995418001156 0.0
    vertex 71.63920437308842 -61.552015137586096 2.5
    vertex 71.63920437308842 -61.552015137586096 0.0
  endloop
endfacet
facet normal -1.0 0.0 0.0
  outer loop
    vertex 71.57983169280911 -62.002995418001156 2.5
    vertex 71.63920437308842 -62.45397569841621 0.0
    vertex 71.63920437308842 -62.45397569841621 2.5
  endloop
endfacet
facet normal -0.9659258262890695 -0.25881904510251563 0.0
  outer loop
    vertex 71.63920437308842 -62.45397569841621 0.0
    vertex 71.57983169280911 -62.002995418001156 2.5
    vertex 71.57983169280911 -62.002995418001156 0.0
  endloop
endfacet
facet normal -0.9659258262890695 -0.25881904510251563 0.0
  outer loop
    vertex 71.63920437308842 -62.45397569841621 2.5
    vertex 71.81327626388331 -62.87422241800115 0.0
    vertex 71.81327626388331 -62.87422241800115 2.5
  endloop
endfacet
facet normal -0.8660254037844412 -0.4999999999999959 0.0
  outer loop
    vertex 71.81327626388331 -62.87422241800115 0.0
    vertex 71.63920437308842 -62.45397569841621 2.5
    vertex 71.63920437308842 -62.45397569841621 0.0
  endloop
endfacet
facet normal -0.8660254037844412 -0.4999999999999959 0.0
  outer loop
    vertex 71.81327626388331 -62.87422241800115 2.5
    vertex 72.09018465350348 -63.23509645730678 0.0
    vertex 72.09018465350348 -63.23509645730678 2.5
  endloop
endfacet
facet normal -0.7071067811865405 -0.7071067811865545 0.0
  outer loop
    vertex 72.09018465350348 -63.23509645730678 0.0
    vertex 71.81327626388331 -62.87422241800115 2.5
    vertex 71.81327626388331 -62.87422241800115 0.0
  endloop
endfacet
facet normal -0.4999999999999914 -0.8660254037844437 0.0
  outer loop
    vertex 72.45105869280911 -63.512004846926956 2.5
    vertex 72.09018465350348 -63.23509645730678 0.0
    vertex 72.45105869280911 -63.512004846926956 0.0
  endloop
endfacet
facet normal -0.7071067811865405 -0.7071067811865545 0.0
  outer loop
    vertex 72.09018465350348 -63.23509645730678 0.0
    vertex 72.45105869280911 -63.512004846926956 2.5
    vertex 72.09018465350348 -63.23509645730678 2.5
  endloop
endfacet
facet normal -0.25881904510253045 -0.9659258262890656 0.0
  outer loop
    vertex 72.87130541239405 -63.68607673772184 2.5
    vertex 72.45105869280911 -63.512004846926956 0.0
    vertex 72.87130541239405 -63.68607673772184 0.0
  endloop
endfacet
facet normal -0.4999999999999914 -0.8660254037844437 0.0
  outer loop
    vertex 72.45105869280911 -63.512004846926956 0.0
    vertex 72.87130541239405 -63.68607673772184 2.5
    vertex 72.45105869280911 -63.512004846926956 2.5
  endloop
endfacet
facet normal -0.13052619222006634 -0.9914448613738086 0.0
  outer loop
    vertex 73.32228569280912 -63.74544941800116 2.5
    vertex 72.87130541239405 -63.68607673772184 0.0
    vertex 73.32228569280912 -63.74544941800116 0.0
  endloop
endfacet
facet normal -0.25881904510253045 -0.9659258262890656 0.0
  outer loop
    vertex 72.87130541239405 -63.68607673772184 0.0
    vertex 73.32228569280912 -63.74544941800116 2.5
    vertex 72.87130541239405 -63.68607673772184 2.5
  endloop
endfacet
facet normal 1.0 -0.0 -0.0
  outer loop
    vertex 64.28953743876886 -22.782663918001177 -4.279595
    vertex 64.28953743876886 -66.82332691800119 2.5
    vertex 64.28953743876886 -66.82332691800119 -4.279595
  endloop
endfacet
facet normal 1.0 -0.0 -0.0
  outer loop
    vertex 64.28953743876886 -66.82332691800119 2.5
    vertex 64.28953743876886 -22.782663918001177 -4.279595
    vertex 64.28953743876886 -22.782663918001177 2.5
  endloop
endfacet
facet normal 2.402429974010232e-33 1.1346333973470082e-32 -1.0
  outer loop
    vertex 66.8222856928091 -29.782663918001166 2.5
    vertex 72.09652386579683 -28.508425745013447 2.5
    vertex 73.32228569280912 -29.782663918001166 2.5
  endloop
endfacet
facet normal 2.402429974010232e-33 1.1346333973470082e-32 -1.0
  outer loop
    vertex 72.09652386579683 -28.508425745013447 2.5
    vertex 66.8222856928091 -29.782663918001166 2.5
    vertex 71.82104018162823 -28.14940841800117 2.5
  endloop
endfacet
facet normal 2.402429974010232e-33 1.1346333973470082e-32 -1.0
  outer loop
    vertex 71.82104018162823 -28.14940841800117 2.5
    vertex 66.8222856928091 -29.782663918001166 2.5
    vertex 71.6478638981211 -27.7313238856769 2.5
  endloop
endfacet
facet normal 2.402429974010232e-33 1.1346333973470082e-32 -1.0
  outer loop
    vertex 71.6478638981211 -27.7313238856769 2.5
    vertex 66.8222856928091 -29.782663918001166 2.5
    vertex 71.58879669280911 -27.28266391800117 2.5
  endloop
endfacet
facet normal 2.402429974010232e-33 1.1346333973470082e-32 -1.0
  outer loop
    vertex 73.32228569280912 -29.782663918001166 2.5
    vertex 72.09652386579683 -28.508425745013447 2.5
    vertex 72.45554119280912 -28.783909429182053 2.5
  endloop
endfacet
facet normal 2.402429974010232e-33 1.1346333973470082e-32 -1.0
  outer loop
    vertex 73.32228569280912 -29.782663918001166 2.5
    vertex 72.45554119280912 -28.783909429182053 2.5
    vertex 72.8736257251334 -28.957085712689178 2.5
  endloop
endfacet
facet normal 2.402429974010232e-33 1.1346333973470082e-32 -1.0
  outer loop
    vertex 73.32228569280912 -29.782663918001166 2.5
    vertex 72.8736257251334 -28.957085712689178 2.5
    vertex 73.32228569280912 -29.016152918001172 2.5
  endloop
endfacet
facet normal 2.402429974010232e-33 1.1346333973470082e-32 -1.0
  outer loop
    vertex 64.28953743876886 -22.782663918001177 2.5
    vertex 66.8222856928091 -29.782663918001166 2.5
    vertex 64.28953743876886 -66.82332691800119 2.5
  endloop
endfacet
facet normal 2.402429974010232e-33 1.1346333973470082e-32 -1.0
  outer loop
    vertex 66.8222856928091 -29.782663918001166 2.5
    vertex 64.28953743876886 -22.782663918001177 2.5
    vertex 72.45554119280912 -25.781418406820286 2.5
  endloop
endfacet
facet normal 2.402429974010232e-33 1.1346333973470082e-32 -1.0
  outer loop
    vertex 72.45554119280912 -25.781418406820286 2.5
    vertex 64.28953743876886 -22.782663918001177 2.5
    vertex 72.8736257251334 -25.60824212331316 2.5
  endloop
endfacet
facet normal 2.402429974010232e-33 1.1346333973470082e-32 -1.0
  outer loop
    vertex 72.8736257251334 -25.60824212331316 2.5
    vertex 64.28953743876886 -22.782663918001177 2.5
    vertex 79.8222856928091 -22.782663918001177 2.5
  endloop
endfacet
facet normal 2.402429974010232e-33 1.1346333973470082e-32 -1.0
  outer loop
    vertex 66.8222856928091 -29.782663918001166 2.5
    vertex 72.45554119280912 -25.781418406820286 2.5
    vertex 72.09652386579683 -26.056902090988892 2.5
  endloop
endfacet
facet normal 2.402429974010232e-33 1.1346333973470082e-32 -1.0
  outer loop
    vertex 66.8222856928091 -29.782663918001166 2.5
    vertex 72.09652386579683 -26.056902090988892 2.5
    vertex 71.82104018162823 -26.41591941800117 2.5
  endloop
endfacet
facet normal 2.402429974010232e-33 1.1346333973470082e-32 -1.0
  outer loop
    vertex 66.8222856928091 -29.782663918001166 2.5
    vertex 71.82104018162823 -26.41591941800117 2.5
    vertex 71.6478638981211 -26.83400395032544 2.5
  endloop
endfacet
facet normal 2.402429974010232e-33 1.1346333973470082e-32 -1.0
  outer loop
    vertex 66.8222856928091 -29.782663918001166 2.5
    vertex 71.6478638981211 -26.83400395032544 2.5
    vertex 71.58879669280911 -27.28266391800117 2.5
  endloop
endfacet
facet normal 2.402429974010232e-33 1.1346333973470082e-32 -1.0
  outer loop
    vertex 72.8736257251334 -25.60824212331316 2.5
    vertex 79.8222856928091 -22.782663918001177 2.5
    vertex 73.32228569280912 -25.549174918001167 2.5
  endloop
endfacet
facet normal 2.402429974010232e-33 1.1346333973470082e-32 -1.0
  outer loop
    vertex 73.32228569280912 -25.549174918001167 2.5
    vertex 79.8222856928091 -22.782663918001177 2.5
    vertex 73.77094566048484 -25.60824212331316 2.5
  endloop
endfacet
facet normal 2.402429974010232e-33 1.1346333973470082e-32 -1.0
  outer loop
    vertex 73.77094566048484 -25.60824212331316 2.5
    vertex 79.8222856928091 -22.782663918001177 2.5
    vertex 74.18903019280911 -25.781418406820286 2.5
  endloop
endfacet
facet normal 2.402429974010232e-33 1.1346333973470082e-32 -1.0
  outer loop
    vertex 74.18903019280911 -25.781418406820286 2.5
    vertex 79.8222856928091 -22.782663918001177 2.5
    vertex 74.5480475198214 -26.056902090988892 2.5
  endloop
endfacet
facet normal 2.402429974010232e-33 1.1346333973470082e-32 -1.0
  outer loop
    vertex 74.5480475198214 -26.056902090988892 2.5
    vertex 79.8222856928091 -22.782663918001177 2.5
    vertex 74.82353120399 -26.41591941800117 2.5
  endloop
endfacet
facet normal 2.402429974010232e-33 1.1346333973470082e-32 -1.0
  outer loop
    vertex 74.82353120399 -26.41591941800117 2.5
    vertex 79.8222856928091 -22.782663918001177 2.5
    vertex 74.99670748749713 -26.83400395032544 2.5
  endloop
endfacet
facet normal 2.402429974010232e-33 1.1346333973470082e-32 -1.0
  outer loop
    vertex 74.99670748749713 -26.83400395032544 2.5
    vertex 79.8222856928091 -22.782663918001177 2.5
    vertex 75.05577469280911 -27.28266391800117 2.5
  endloop
endfacet
facet normal 2.402429974010232e-33 1.1346333973470082e-32 -1.0
  outer loop
    vertex 73.77094566048484 -28.957085712689178 2.5
    vertex 73.32228569280912 -29.782663918001166 2.5
    vertex 73.32228569280912 -29.016152918001172 2.5
  endloop
endfacet
facet normal 2.402429974010232e-33 1.1346333973470082e-32 -1.0
  outer loop
    vertex 73.32228569280912 -29.782663918001166 2.5
    vertex 73.77094566048484 -28.957085712689178 2.5
    vertex 79.8222856928091 -29.782663918001166 2.5
  endloop
endfacet
facet normal 2.402429974010232e-33 1.1346333973470082e-32 -1.0
  outer loop
    vertex 79.8222856928091 -29.782663918001166 2.5
    vertex 73.77094566048484 -28.957085712689178 2.5
    vertex 74.18903019280911 -28.783909429182053 2.5
  endloop
endfacet
facet normal 2.402429974010232e-33 1.1346333973470082e-32 -1.0
  outer loop
    vertex 79.8222856928091 -29.782663918001166 2.5
    vertex 74.18903019280911 -28.783909429182053 2.5
    vertex 74.5480475198214 -28.508425745013447 2.5
  endloop
endfacet
facet normal 2.402429974010232e-33 1.1346333973470082e-32 -1.0
  outer loop
    vertex 79.8222856928091 -29.782663918001166 2.5
    vertex 74.5480475198214 -28.508425745013447 2.5
    vertex 74.82353120398999 -28.14940841800117 2.5
  endloop
endfacet
facet normal 2.402429974010232e-33 1.1346333973470082e-32 -1.0
  outer loop
    vertex 79.8222856928091 -29.782663918001166 2.5
    vertex 74.82353120398999 -28.14940841800117 2.5
    vertex 74.99670748749713 -27.7313238856769 2.5
  endloop
endfacet
facet normal 2.402429974010232e-33 1.1346333973470082e-32 -1.0
  outer loop
    vertex 79.8222856928091 -29.782663918001166 2.5
    vertex 74.99670748749713 -27.7313238856769 2.5
    vertex 75.05577469280911 -27.28266391800117 2.5
  endloop
endfacet
facet normal 2.402429974010232e-33 1.1346333973470082e-32 -1.0
  outer loop
    vertex 79.8222856928091 -29.782663918001166 2.5
    vertex 75.05577469280911 -27.28266391800117 2.5
    vertex 79.8222856928091 -22.782663918001177 2.5
  endloop
endfacet
facet normal 2.402429974010232e-33 1.1346333973470082e-32 -1.0
  outer loop
    vertex 66.8222856928091 -59.182663918001154 2.5
    vertex 71.63920437308842 -61.552015137586096 2.5
    vertex 71.57983169280911 -62.002995418001156 2.5
  endloop
endfacet
facet normal 2.402429974010232e-33 1.1346333973470082e-32 -1.0
  outer loop
    vertex 71.63920437308842 -61.552015137586096 2.5
    vertex 66.8222856928091 -59.182663918001154 2.5
    vertex 71.81327626388331 -61.13176841800115 2.5
  endloop
endfacet
facet normal 2.402429974010232e-33 1.1346333973470082e-32 -1.0
  outer loop
    vertex 71.81327626388331 -61.13176841800115 2.5
    vertex 66.8222856928091 -59.182663918001154 2.5
    vertex 72.09018465350348 -60.77089437869552 2.5
  endloop
endfacet
facet normal 2.402429974010232e-33 1.1346333973470082e-32 -1.0
  outer loop
    vertex 72.09018465350348 -60.77089437869552 2.5
    vertex 66.8222856928091 -59.182663918001154 2.5
    vertex 73.32228569280912 -59.182663918001154 2.5
  endloop
endfacet
facet normal 2.402429974010232e-33 1.1346333973470082e-32 -1.0
  outer loop
    vertex 72.09018465350348 -60.77089437869552 2.5
    vertex 73.32228569280912 -59.182663918001154 2.5
    vertex 72.45105869280911 -60.49398598907535 2.5
  endloop
endfacet
facet normal 2.402429974010232e-33 1.1346333973470082e-32 -1.0
  outer loop
    vertex 72.45105869280911 -60.49398598907535 2.5
    vertex 73.32228569280912 -59.182663918001154 2.5
    vertex 72.87130541239405 -60.319914098280464 2.5
  endloop
endfacet
facet normal 2.402429974010232e-33 1.1346333973470082e-32 -1.0
  outer loop
    vertex 72.87130541239405 -60.319914098280464 2.5
    vertex 73.32228569280912 -59.182663918001154 2.5
    vertex 73.32228569280912 -60.26054141800115 2.5
  endloop
endfacet
facet normal 2.402429974010232e-33 1.1346333973470082e-32 -1.0
  outer loop
    vertex 64.28953743876886 -66.82332691800119 2.5
    vertex 66.8222856928091 -59.182663918001154 2.5
    vertex 73.32228569280912 -66.82332691800119 2.5
  endloop
endfacet
facet normal 2.402429974010232e-33 1.1346333973470082e-32 -1.0
  outer loop
    vertex 66.8222856928091 -59.182663918001154 2.5
    vertex 64.28953743876886 -66.82332691800119 2.5
    vertex 66.8222856928091 -29.782663918001166 2.5
  endloop
endfacet
facet normal 2.402429974010232e-33 1.1346333973470082e-32 -1.0
  outer loop
    vertex 73.32228569280912 -66.82332691800119 2.5
    vertex 66.8222856928091 -59.182663918001154 2.5
    vertex 71.63920437308842 -62.45397569841621 2.5
  endloop
endfacet
facet normal 2.402429974010232e-33 1.1346333973470082e-32 -1.0
  outer loop
    vertex 71.63920437308842 -62.45397569841621 2.5
    vertex 66.8222856928091 -59.182663918001154 2.5
    vertex 71.57983169280911 -62.002995418001156 2.5
  endloop
endfacet
facet normal 2.402429974010232e-33 1.1346333973470082e-32 -1.0
  outer loop
    vertex 73.32228569280912 -66.82332691800119 2.5
    vertex 71.63920437308842 -62.45397569841621 2.5
    vertex 71.81327626388331 -62.87422241800115 2.5
  endloop
endfacet
facet normal 2.402429974010232e-33 1.1346333973470082e-32 -1.0
  outer loop
    vertex 73.32228569280912 -66.82332691800119 2.5
    vertex 71.81327626388331 -62.87422241800115 2.5
    vertex 72.09018465350348 -63.23509645730678 2.5
  endloop
endfacet
facet normal 2.402429974010232e-33 1.1346333973470082e-32 -1.0
  outer loop
    vertex 73.32228569280912 -66.82332691800119 2.5
    vertex 72.09018465350348 -63.23509645730678 2.5
    vertex 72.45105869280911 -63.512004846926956 2.5
  endloop
endfacet
facet normal 2.402429974010232e-33 1.1346333973470082e-32 -1.0
  outer loop
    vertex 73.32228569280912 -66.82332691800119 2.5
    vertex 72.45105869280911 -63.512004846926956 2.5
    vertex 72.87130541239405 -63.68607673772184 2.5
  endloop
endfacet
facet normal 2.402429974010232e-33 1.1346333973470082e-32 -1.0
  outer loop
    vertex 73.32228569280912 -66.82332691800119 2.5
    vertex 72.87130541239405 -63.68607673772184 2.5
    vertex 73.32228569280912 -63.74544941800116 2.5
  endloop
endfacet
facet normal 0.2588190451025252 -0.9659258262890672 0.0
  outer loop
    vertex 73.77094566048484 -28.957085712689178 2.5
    vertex 73.32228569280912 -29.016152918001172 0.0
    vertex 73.77094566048484 -28.957085712689178 0.0
  endloop
endfacet
facet normal 0.13052619222006034 -0.9914448613738094 0.0
  outer loop
    vertex 73.32228569280912 -29.016152918001172 0.0
    vertex 73.77094566048484 -28.957085712689178 2.5
    vertex 73.32228569280912 -29.016152918001172 2.5
  endloop
endfacet
facet normal 0.5000000000000066 -0.8660254037844349 0.0
  outer loop
    vertex 74.18903019280911 -28.783909429182053 2.5
    vertex 73.77094566048484 -28.957085712689178 0.0
    vertex 74.18903019280911 -28.783909429182053 0.0
  endloop
endfacet
facet normal 0.2588190451025252 -0.9659258262890672 0.0
  outer loop
    vertex 73.77094566048484 -28.957085712689178 0.0
    vertex 74.18903019280911 -28.783909429182053 2.5
    vertex 73.77094566048484 -28.957085712689178 2.5
  endloop
endfacet
facet normal 0.7071067811865492 -0.7071067811865461 0.0
  outer loop
    vertex 74.5480475198214 -28.508425745013447 2.5
    vertex 74.18903019280911 -28.783909429182053 0.0
    vertex 74.5480475198214 -28.508425745013447 0.0
  endloop
endfacet
facet normal 0.5000000000000066 -0.8660254037844349 0.0
  outer loop
    vertex 74.18903019280911 -28.783909429182053 0.0
    vertex 74.5480475198214 -28.508425745013447 2.5
    vertex 74.18903019280911 -28.783909429182053 2.5
  endloop
endfacet
facet normal 0.8660254037844303 -0.5000000000000145 0.0
  outer loop
    vertex 74.82353120398999 -28.14940841800117 0.0
    vertex 74.5480475198214 -28.508425745013447 2.5
    vertex 74.5480475198214 -28.508425745013447 0.0
  endloop
endfacet
facet normal 0.7071067811865492 -0.7071067811865461 0.0
  outer loop
    vertex 74.5480475198214 -28.508425745013447 2.5
    vertex 74.82353120398999 -28.14940841800117 0.0
    vertex 74.82353120398999 -28.14940841800117 2.5
  endloop
endfacet
facet normal 0.9659258262890676 -0.2588190451025228 0.0
  outer loop
    vertex 74.99670748749713 -27.7313238856769 0.0
    vertex 74.82353120398999 -28.14940841800117 2.5
    vertex 74.82353120398999 -28.14940841800117 0.0
  endloop
endfacet
facet normal 0.8660254037844303 -0.5000000000000145 0.0
  outer loop
    vertex 74.82353120398999 -28.14940841800117 2.5
    vertex 74.99670748749713 -27.7313238856769 0.0
    vertex 74.99670748749713 -27.7313238856769 2.5
  endloop
endfacet
facet normal 1.0 0.0 0.0
  outer loop
    vertex 75.05577469280911 -27.28266391800117 0.0
    vertex 74.99670748749713 -27.7313238856769 2.5
    vertex 74.99670748749713 -27.7313238856769 0.0
  endloop
endfacet
facet normal 0.9659258262890676 -0.2588190451025228 0.0
  outer loop
    vertex 74.99670748749713 -27.7313238856769 2.5
    vertex 75.05577469280911 -27.28266391800117 0.0
    vertex 75.05577469280911 -27.28266391800117 2.5
  endloop
endfacet
facet normal 0.9659258262890708 0.25881904510251164 0.0
  outer loop
    vertex 74.99670748749713 -26.83400395032544 0.0
    vertex 75.05577469280911 -27.28266391800117 2.5
    vertex 75.05577469280911 -27.28266391800117 0.0
  endloop
endfacet
facet normal 1.0 0.0 0.0
  outer loop
    vertex 75.05577469280911 -27.28266391800117 2.5
    vertex 74.99670748749713 -26.83400395032544 0.0
    vertex 74.99670748749713 -26.83400395032544 2.5
  endloop
endfacet
facet normal 0.866025403784431 0.500000000000013 0.0
  outer loop
    vertex 74.82353120399 -26.41591941800117 0.0
    vertex 74.99670748749713 -26.83400395032544 2.5
    vertex 74.99670748749713 -26.83400395032544 0.0
  endloop
endfacet
facet normal 0.9659258262890708 0.25881904510251164 0.0
  outer loop
    vertex 74.99670748749713 -26.83400395032544 2.5
    vertex 74.82353120399 -26.41591941800117 0.0
    vertex 74.82353120399 -26.41591941800117 2.5
  endloop
endfacet
facet normal 0.7071067811865475 0.7071067811865475 0.0
  outer loop
    vertex 74.5480475198214 -26.056902090988892 0.0
    vertex 74.82353120399 -26.41591941800117 2.5
    vertex 74.82353120399 -26.41591941800117 0.0
  endloop
endfacet
facet normal 0.866025403784431 0.500000000000013 0.0
  outer loop
    vertex 74.82353120399 -26.41591941800117 2.5
    vertex 74.5480475198214 -26.056902090988892 0.0
    vertex 74.5480475198214 -26.056902090988892 2.5
  endloop
endfacet
facet normal 0.5000000000000089 0.8660254037844334 0.0
  outer loop
    vertex 74.18903019280911 -25.781418406820286 2.5
    vertex 74.5480475198214 -26.056902090988892 0.0
    vertex 74.18903019280911 -25.781418406820286 0.0
  endloop
endfacet
facet normal 0.7071067811865475 0.7071067811865475 0.0
  outer loop
    vertex 74.5480475198214 -26.056902090988892 0.0
    vertex 74.18903019280911 -25.781418406820286 2.5
    vertex 74.5480475198214 -26.056902090988892 2.5
  endloop
endfacet
facet normal 0.2588190451025206 0.9659258262890684 0.0
  outer loop
    vertex 73.77094566048484 -25.60824212331316 2.5
    vertex 74.18903019280911 -25.781418406820286 0.0
    vertex 73.77094566048484 -25.60824212331316 0.0
  endloop
endfacet
facet normal 0.5000000000000089 0.8660254037844334 0.0
  outer loop
    vertex 74.18903019280911 -25.781418406820286 0.0
    vertex 73.77094566048484 -25.60824212331316 2.5
    vertex 74.18903019280911 -25.781418406820286 2.5
  endloop
endfacet
facet normal 0.13052619222006034 0.9914448613738094 -0.0
  outer loop
    vertex 73.32228569280912 -25.549174918001167 2.5
    vertex 73.77094566048484 -25.60824212331316 0.0
    vertex 73.32228569280912 -25.549174918001167 0.0
  endloop
endfacet
facet normal 0.2588190451025206 0.9659258262890684 0.0
  outer loop
    vertex 73.77094566048484 -25.60824212331316 0.0
    vertex 73.32228569280912 -25.549174918001167 2.5
    vertex 73.77094566048484 -25.60824212331316 2.5
  endloop
endfacet
facet normal -1.0 0.0 0.0
  outer loop
    vertex 79.8222856928091 -22.782663918001177 2.5
    vertex 79.8222856928091 -29.782663918001166 0.0
    vertex 79.8222856928091 -29.782663918001166 2.5
  endloop
endfacet
facet normal -1.0 0.0 0.0
  outer loop
    vertex 79.8222856928091 -29.782663918001166 0.0
    vertex 79.8222856928091 -22.782663918001177 2.5
    vertex 79.8222856928091 -22.782663918001177 0.0
  endloop
endfacet
facet normal -0.0 1.0 -0.0
  outer loop
    vertex 73.32228569280912 -29.782663918001166 2.5
    vertex 79.8222856928091 -29.782663918001166 0.0
    vertex 73.32228569280912 -29.782663918001166 0.0
  endloop
endfacet
facet normal -0.0 1.0 -0.0
  outer loop
    vertex 79.8222856928091 -29.782663918001166 0.0
    vertex 73.32228569280912 -29.782663918001166 2.5
    vertex 79.8222856928091 -29.782663918001166 2.5
  endloop
endfacet
facet normal -0.0 -0.0 1.0
  outer loop
    vertex 66.8222856928091 -66.82332691800119 -4.279595
    vertex 64.28953743876886 -22.782663918001177 -4.279595
    vertex 64.28953743876886 -66.82332691800119 -4.279595
  endloop
endfacet
facet normal -0.0 -0.0 1.0
  outer loop
    vertex 64.28953743876886 -22.782663918001177 -4.279595
    vertex 66.8222856928091 -66.82332691800119 -4.279595
    vertex 66.8222856928091 -22.782663918001177 -4.279595
  endloop
endfacet
facet normal -0.0 -0.0 1.0
  outer loop
    vertex 66.8222856928091 -22.782663918001177 -4.279595
    vertex 66.8222856928091 -66.82332691800119 -4.279595
    vertex 66.8222856928091 -59.182663918001154 -4.279595
  endloop
endfacet
facet normal -0.0 -0.0 1.0
  outer loop
    vertex 66.8222856928091 -22.782663918001177 -4.279595
    vertex 66.8222856928091 -59.182663918001154 -4.279595
    vertex 66.8222856928091 -29.782663918001166 -4.279595
  endloop
endfacet
facet normal -1.0 0.0 0.0
  outer loop
    vertex 66.8222856928091 -22.782663918001177 -3.0
    vertex 66.8222856928091 -29.782663918001166 -4.279595
    vertex 66.8222856928091 -29.782663918001166 -3.0
  endloop
endfacet
facet normal -1.0 0.0 0.0
  outer loop
    vertex 66.8222856928091 -29.782663918001166 -4.279595
    vertex 66.8222856928091 -22.782663918001177 -3.0
    vertex 66.8222856928091 -22.782663918001177 -4.279595
  endloop
endfacet
facet normal -0.0 -0.0 1.0
  outer loop
    vertex 69.82228569280912 -66.82332691800119 0.0
    vertex 71.81327626388331 -62.87422241800115 0.0
    vertex 69.82228569280912 -59.182663918001154 0.0
  endloop
endfacet
facet normal -0.0 -0.0 1.0
  outer loop
    vertex 71.81327626388331 -62.87422241800115 0.0
    vertex 69.82228569280912 -66.82332691800119 0.0
    vertex 72.09018465350348 -63.23509645730678 0.0
  endloop
endfacet
facet normal -0.0 -0.0 1.0
  outer loop
    vertex 72.09018465350348 -63.23509645730678 0.0
    vertex 69.82228569280912 -66.82332691800119 0.0
    vertex 72.45105869280911 -63.512004846926956 0.0
  endloop
endfacet
facet normal -0.0 -0.0 1.0
  outer loop
    vertex 72.45105869280911 -63.512004846926956 0.0
    vertex 69.82228569280912 -66.82332691800119 0.0
    vertex 79.8222856928091 -66.82332691800119 0.0
  endloop
endfacet
facet normal -0.0 -0.0 1.0
  outer loop
    vertex 69.82228569280912 -59.182663918001154 0.0
    vertex 71.81327626388331 -62.87422241800115 0.0
    vertex 71.63920437308842 -62.45397569841621 0.0
  endloop
endfacet
facet normal -0.0 -0.0 1.0
  outer loop
    vertex 69.82228569280912 -59.182663918001154 0.0
    vertex 71.63920437308842 -62.45397569841621 0.0
    vertex 71.57983169280911 -62.002995418001156 0.0
  endloop
endfacet
facet normal -0.0 -0.0 1.0
  outer loop
    vertex 72.45105869280911 -63.512004846926956 0.0
    vertex 79.8222856928091 -66.82332691800119 0.0
    vertex 72.87130541239405 -63.68607673772184 0.0
  endloop
endfacet
facet normal -0.0 -0.0 1.0
  outer loop
    vertex 72.87130541239405 -63.68607673772184 0.0
    vertex 79.8222856928091 -66.82332691800119 0.0
    vertex 73.32228569280912 -63.74544941800116 0.0
  endloop
endfacet
facet normal -0.0 -0.0 1.0
  outer loop
    vertex 73.32228569280912 -63.74544941800116 0.0
    vertex 79.8222856928091 -66.82332691800119 0.0
    vertex 73.77326597322418 -63.68607673772184 0.0
  endloop
endfacet
facet normal -0.0 -0.0 1.0
  outer loop
    vertex 73.77326597322418 -63.68607673772184 0.0
    vertex 79.8222856928091 -66.82332691800119 0.0
    vertex 74.19351269280911 -63.512004846926956 0.0
  endloop
endfacet
facet normal -0.0 -0.0 1.0
  outer loop
    vertex 74.19351269280911 -63.512004846926956 0.0
    vertex 79.8222856928091 -66.82332691800119 0.0
    vertex 74.55438673211474 -63.23509645730678 0.0
  endloop
endfacet
facet normal -0.0 -0.0 1.0
  outer loop
    vertex 74.55438673211474 -63.23509645730678 0.0
    vertex 79.8222856928091 -66.82332691800119 0.0
    vertex 74.83129512173493 -62.87422241800115 0.0
  endloop
endfacet
facet normal -0.0 -0.0 1.0
  outer loop
    vertex 74.83129512173493 -62.87422241800115 0.0
    vertex 79.8222856928091 -66.82332691800119 0.0
    vertex 75.0053670125298 -62.45397569841621 0.0
  endloop
endfacet
facet normal -0.0 -0.0 1.0
  outer loop
    vertex 75.0053670125298 -62.45397569841621 0.0
    vertex 79.8222856928091 -66.82332691800119 0.0
    vertex 75.06473969280911 -62.002995418001156 0.0
  endloop
endfacet
facet normal -0.0 -0.0 1.0
  outer loop
    vertex 69.82228569280912 -59.182663918001154 0.0
    vertex 72.09018465350348 -60.77089437869552 0.0
    vertex 73.32228569280912 -59.182663918001154 0.0
  endloop
endfacet
facet normal -0.0 -0.0 1.0
  outer loop
    vertex 72.09018465350348 -60.77089437869552 0.0
    vertex 69.82228569280912 -59.182663918001154 0.0
    vertex 71.81327626388331 -61.13176841800115 0.0
  endloop
endfacet
facet normal -0.0 -0.0 1.0
  outer loop
    vertex 71.81327626388331 -61.13176841800115 0.0
    vertex 69.82228569280912 -59.182663918001154 0.0
    vertex 71.63920437308842 -61.552015137586096 0.0
  endloop
endfacet
facet normal -0.0 -0.0 1.0
  outer loop
    vertex 71.63920437308842 -61.552015137586096 0.0
    vertex 69.82228569280912 -59.182663918001154 0.0
    vertex 71.57983169280911 -62.002995418001156 0.0
  endloop
endfacet
facet normal -0.0 -0.0 1.0
  outer loop
    vertex 73.32228569280912 -59.182663918001154 0.0
    vertex 72.09018465350348 -60.77089437869552 0.0
    vertex 72.45105869280911 -60.49398598907535 0.0
  endloop
endfacet
facet normal -0.0 -0.0 1.0
  outer loop
    vertex 73.32228569280912 -59.182663918001154 0.0
    vertex 72.45105869280911 -60.49398598907535 0.0
    vertex 72.87130541239405 -60.319914098280464 0.0
  endloop
endfacet
facet normal -0.0 -0.0 1.0
  outer loop
    vertex 73.32228569280912 -59.182663918001154 0.0
    vertex 72.87130541239405 -60.319914098280464 0.0
    vertex 73.32228569280912 -60.26054141800115 0.0
  endloop
endfacet
facet normal -0.0 -0.0 1.0
  outer loop
    vertex 73.32228569280912 -59.182663918001154 0.0
    vertex 73.32228569280912 -60.26054141800115 0.0
    vertex 73.77326597322418 -60.319914098280464 0.0
  endloop
endfacet
facet normal -0.0 -0.0 1.0
  outer loop
    vertex 73.32228569280912 -59.182663918001154 0.0
    vertex 73.77326597322418 -60.319914098280464 0.0
    vertex 79.8222856928091 -59.182663918001154 0.0
  endloop
endfacet
facet normal -0.0 -0.0 1.0
  outer loop
    vertex 79.8222856928091 -59.182663918001154 0.0
    vertex 73.77326597322418 -60.319914098280464 0.0
    vertex 74.19351269280911 -60.49398598907535 0.0
  endloop
endfacet
facet normal -0.0 -0.0 1.0
  outer loop
    vertex 79.8222856928091 -59.182663918001154 0.0
    vertex 74.19351269280911 -60.49398598907535 0.0
    vertex 74.55438673211474 -60.77089437869552 0.0
  endloop
endfacet
facet normal -0.0 -0.0 1.0
  outer loop
    vertex 79.8222856928091 -59.182663918001154 0.0
    vertex 74.55438673211474 -60.77089437869552 0.0
    vertex 74.83129512173493 -61.13176841800115 0.0
  endloop
endfacet
facet normal -0.0 -0.0 1.0
  outer loop
    vertex 79.8222856928091 -59.182663918001154 0.0
    vertex 74.83129512173493 -61.13176841800115 0.0
    vertex 75.0053670125298 -61.552015137586096 0.0
  endloop
endfacet
facet normal -0.0 -0.0 1.0
  outer loop
    vertex 79.8222856928091 -59.182663918001154 0.0
    vertex 75.0053670125298 -61.552015137586096 0.0
    vertex 75.06473969280911 -62.002995418001156 0.0
  endloop
endfacet
facet normal -0.0 -0.0 1.0
  outer loop
    vertex 79.8222856928091 -59.182663918001154 0.0
    vertex 75.06473969280911 -62.002995418001156 0.0
    vertex 79.8222856928091 -66.82332691800119 0.0
  endloop
endfacet
facet normal -1.0 0.0 0.0
  outer loop
    vertex 66.8222856928091 -59.182663918001154 -3.0
    vertex 66.8222856928091 -66.82332691800119 -4.279595
    vertex 66.8222856928091 -66.82332691800119 -3.0
  endloop
endfacet
facet normal -1.0 0.0 0.0
  outer loop
    vertex 66.8222856928091 -66.82332691800119 -4.279595
    vertex 66.8222856928091 -59.182663918001154 -3.0
    vertex 66.8222856928091 -59.182663918001154 -4.279595
  endloop
endfacet
facet normal -0.0 -0.0 1.0
  outer loop
    vertex 69.82228569280912 -29.782663918001166 0.0
    vertex 71.6478638981211 -27.7313238856769 0.0
    vertex 69.82228569280912 -22.782663918001177 0.0
  endloop
endfacet
facet normal -0.0 -0.0 1.0
  outer loop
    vertex 71.6478638981211 -27.7313238856769 0.0
    vertex 69.82228569280912 -29.782663918001166 0.0
    vertex 71.82104018162823 -28.14940841800117 0.0
  endloop
endfacet
facet normal -0.0 -0.0 1.0
  outer loop
    vertex 71.82104018162823 -28.14940841800117 0.0
    vertex 69.82228569280912 -29.782663918001166 0.0
    vertex 72.09652386579683 -28.508425745013447 0.0
  endloop
endfacet
facet normal -0.0 -0.0 1.0
  outer loop
    vertex 72.09652386579683 -28.508425745013447 0.0
    vertex 69.82228569280912 -29.782663918001166 0.0
    vertex 73.32228569280912 -29.782663918001166 0.0
  endloop
endfacet
facet normal -0.0 -0.0 1.0
  outer loop
    vertex 69.82228569280912 -22.782663918001177 0.0
    vertex 71.6478638981211 -27.7313238856769 0.0
    vertex 71.58879669280911 -27.28266391800117 0.0
  endloop
endfacet
facet normal -0.0 -0.0 1.0
  outer loop
    vertex 72.09652386579683 -28.508425745013447 0.0
    vertex 73.32228569280912 -29.782663918001166 0.0
    vertex 72.45554119280912 -28.783909429182053 0.0
  endloop
endfacet
facet normal -0.0 -0.0 1.0
  outer loop
    vertex 72.45554119280912 -28.783909429182053 0.0
    vertex 73.32228569280912 -29.782663918001166 0.0
    vertex 72.8736257251334 -28.957085712689178 0.0
  endloop
endfacet
facet normal -0.0 -0.0 1.0
  outer loop
    vertex 72.8736257251334 -28.957085712689178 0.0
    vertex 73.32228569280912 -29.782663918001166 0.0
    vertex 73.32228569280912 -29.016152918001172 0.0
  endloop
endfacet
facet normal -0.0 -0.0 1.0
  outer loop
    vertex 73.32228569280912 -29.016152918001172 0.0
    vertex 73.32228569280912 -29.782663918001166 0.0
    vertex 79.8222856928091 -29.782663918001166 0.0
  endloop
endfacet
facet normal -0.0 -0.0 1.0
  outer loop
    vertex 73.32228569280912 -29.016152918001172 0.0
    vertex 79.8222856928091 -29.782663918001166 0.0
    vertex 73.77094566048484 -28.957085712689178 0.0
  endloop
endfacet
facet normal -0.0 -0.0 1.0
  outer loop
    vertex 73.77094566048484 -28.957085712689178 0.0
    vertex 79.8222856928091 -29.782663918001166 0.0
    vertex 74.18903019280911 -28.783909429182053 0.0
  endloop
endfacet
facet normal -0.0 -0.0 1.0
  outer loop
    vertex 74.18903019280911 -28.783909429182053 0.0
    vertex 79.8222856928091 -29.782663918001166 0.0
    vertex 74.5480475198214 -28.508425745013447 0.0
  endloop
endfacet
facet normal -0.0 -0.0 1.0
  outer loop
    vertex 74.5480475198214 -28.508425745013447 0.0
    vertex 79.8222856928091 -29.782663918001166 0.0
    vertex 74.82353120398999 -28.14940841800117 0.0
  endloop
endfacet
facet normal -0.0 -0.0 1.0
  outer loop
    vertex 74.82353120398999 -28.14940841800117 0.0
    vertex 79.8222856928091 -29.782663918001166 0.0
    vertex 74.99670748749713 -27.7313238856769 0.0
  endloop
endfacet
facet normal -0.0 -0.0 1.0
  outer loop
    vertex 74.99670748749713 -27.7313238856769 0.0
    vertex 79.8222856928091 -29.782663918001166 0.0
    vertex 75.05577469280911 -27.28266391800117 0.0
  endloop
endfacet
facet normal -0.0 -0.0 1.0
  outer loop
    vertex 69.82228569280912 -22.782663918001177 0.0
    vertex 72.8736257251334 -25.60824212331316 0.0
    vertex 79.8222856928091 -22.782663918001177 0.0
  endloop
endfacet
facet normal -0.0 -0.0 1.0
  outer loop
    vertex 72.8736257251334 -25.60824212331316 0.0
    vertex 69.82228569280912 -22.782663918001177 0.0
    vertex 72.45554119280912 -25.781418406820286 0.0
  endloop
endfacet
facet normal -0.0 -0.0 1.0
  outer loop
    vertex 72.45554119280912 -25.781418406820286 0.0
    vertex 69.82228569280912 -22.782663918001177 0.0
    vertex 72.09652386579683 -26.056902090988892 0.0
  endloop
endfacet
facet normal -0.0 -0.0 1.0
  outer loop
    vertex 72.09652386579683 -26.056902090988892 0.0
    vertex 69.82228569280912 -22.782663918001177 0.0
    vertex 71.82104018162823 -26.41591941800117 0.0
  endloop
endfacet
facet normal -0.0 -0.0 1.0
  outer loop
    vertex 71.82104018162823 -26.41591941800117 0.0
    vertex 69.82228569280912 -22.782663918001177 0.0
    vertex 71.6478638981211 -26.83400395032544 0.0
  endloop
endfacet
facet normal -0.0 -0.0 1.0
  outer loop
    vertex 71.6478638981211 -26.83400395032544 0.0
    vertex 69.82228569280912 -22.782663918001177 0.0
    vertex 71.58879669280911 -27.28266391800117 0.0
  endloop
endfacet
facet normal -0.0 -0.0 1.0
  outer loop
    vertex 79.8222856928091 -22.782663918001177 0.0
    vertex 72.8736257251334 -25.60824212331316 0.0
    vertex 73.32228569280912 -25.549174918001167 0.0
  endloop
endfacet
facet normal -0.0 -0.0 1.0
  outer loop
    vertex 79.8222856928091 -22.782663918001177 0.0
    vertex 73.32228569280912 -25.549174918001167 0.0
    vertex 73.77094566048484 -25.60824212331316 0.0
  endloop
endfacet
facet normal -0.0 -0.0 1.0
  outer loop
    vertex 79.8222856928091 -22.782663918001177 0.0
    vertex 73.77094566048484 -25.60824212331316 0.0
    vertex 74.18903019280911 -25.781418406820286 0.0
  endloop
endfacet
facet normal -0.0 -0.0 1.0
  outer loop
    vertex 79.8222856928091 -22.782663918001177 0.0
    vertex 74.18903019280911 -25.781418406820286 0.0
    vertex 74.5480475198214 -26.056902090988892 0.0
  endloop
endfacet
facet normal -0.0 -0.0 1.0
  outer loop
    vertex 79.8222856928091 -22.782663918001177 0.0
    vertex 74.5480475198214 -26.056902090988892 0.0
    vertex 74.82353120399 -26.41591941800117 0.0
  endloop
endfacet
facet normal -0.0 -0.0 1.0
  outer loop
    vertex 79.8222856928091 -22.782663918001177 0.0
    vertex 74.82353120399 -26.41591941800117 0.0
    vertex 74.99670748749713 -26.83400395032544 0.0
  endloop
endfacet
facet normal -0.0 -0.0 1.0
  outer loop
    vertex 79.8222856928091 -22.782663918001177 0.0
    vertex 74.99670748749713 -26.83400395032544 0.0
    vertex 75.05577469280911 -27.28266391800117 0.0
  endloop
endfacet
facet normal -0.0 -0.0 1.0
  outer loop
    vertex 79.8222856928091 -22.782663918001177 0.0
    vertex 75.05577469280911 -27.28266391800117 0.0
    vertex 79.8222856928091 -29.782663918001166 0.0
  endloop
endfacet
facet normal -0.13052619222005035 -0.0 0.9914448613738107
  outer loop
    vertex 69.82228569280912 -66.82332691800119 0.0
    vertex 69.04582855750155 -59.182663918001154 -0.10222252113279491
    vertex 69.04582855750155 -66.82332691800119 -0.10222252113279491
  endloop
endfacet
facet normal -0.2588190451025224 0.0 0.9659258262890679
  outer loop
    vertex 69.04582855750155 -59.182663918001154 -0.10222252113279491
    vertex 69.82228569280912 -66.82332691800119 0.0
    vertex 69.82228569280912 -59.182663918001154 0.0
  endloop
endfacet
facet normal -0.9659258262890668 0.0 0.2588190451025267
  outer loop
    vertex 66.9245082139419 -22.782663918001177 -2.2235428646924373
    vertex 66.8222856928091 -29.782663918001166 -3.0
    vertex 66.9245082139419 -29.782663918001166 -2.2235428646924373
  endloop
endfacet
facet normal -0.9914448613738096 0.0 0.13052619222005873
  outer loop
    vertex 66.8222856928091 -29.782663918001166 -3.0
    vertex 66.9245082139419 -22.782663918001177 -2.2235428646924373
    vertex 66.8222856928091 -22.782663918001177 -3.0
  endloop
endfacet
facet normal -0.8660254037844369 0.0 0.500000000000003
  outer loop
    vertex 67.2242094814558 -22.782663918001177 -1.4999999999999998
    vertex 66.9245082139419 -29.782663918001166 -2.2235428646924373
    vertex 67.2242094814558 -29.782663918001166 -1.4999999999999998
  endloop
endfacet
facet normal -0.9659258262890668 0.0 0.2588190451025267
  outer loop
    vertex 66.9245082139419 -29.782663918001166 -2.2235428646924373
    vertex 67.2242094814558 -22.782663918001177 -1.4999999999999998
    vertex 66.9245082139419 -22.782663918001177 -2.2235428646924373
  endloop
endfacet
facet normal -0.7071067811865477 0.0 0.7071067811865476
  outer loop
    vertex 67.70096534924947 -22.782663918001177 -0.8786796564403572
    vertex 67.2242094814558 -29.782663918001166 -1.4999999999999998
    vertex 67.70096534924947 -29.782663918001166 -0.8786796564403572
  endloop
endfacet
facet normal -0.8660254037844369 0.0 0.500000000000003
  outer loop
    vertex 67.2242094814558 -29.782663918001166 -1.4999999999999998
    vertex 67.70096534924947 -22.782663918001177 -0.8786796564403572
    vertex 67.2242094814558 -22.782663918001177 -1.4999999999999998
  endloop
endfacet
facet normal -0.5000000000000029 0.0 0.8660254037844369
  outer loop
    vertex 68.32228569280912 -66.82332691800119 -0.40192378864668404
    vertex 67.70096534924947 -59.182663918001154 -0.8786796564403572
    vertex 67.70096534924947 -66.82332691800119 -0.8786796564403572
  endloop
endfacet
facet normal -0.7071067811865477 0.0 0.7071067811865476
  outer loop
    vertex 67.70096534924947 -59.182663918001154 -0.8786796564403572
    vertex 68.32228569280912 -66.82332691800119 -0.40192378864668404
    vertex 68.32228569280912 -59.182663918001154 -0.40192378864668404
  endloop
endfacet
facet normal -0.2588190451025224 0.0 0.9659258262890679
  outer loop
    vertex 69.04582855750155 -66.82332691800119 -0.10222252113279491
    vertex 68.32228569280912 -59.182663918001154 -0.40192378864668404
    vertex 68.32228569280912 -66.82332691800119 -0.40192378864668404
  endloop
endfacet
facet normal -0.5000000000000029 0.0 0.8660254037844369
  outer loop
    vertex 68.32228569280912 -59.182663918001154 -0.40192378864668404
    vertex 69.04582855750155 -66.82332691800119 -0.10222252113279491
    vertex 69.04582855750155 -59.182663918001154 -0.10222252113279491
  endloop
endfacet
facet normal -0.2588190451025224 0.0 0.9659258262890679
  outer loop
    vertex 69.04582855750155 -29.782663918001166 -0.10222252113279491
    vertex 68.32228569280912 -22.782663918001177 -0.40192378864668404
    vertex 68.32228569280912 -29.782663918001166 -0.40192378864668404
  endloop
endfacet
facet normal -0.5000000000000029 0.0 0.8660254037844369
  outer loop
    vertex 68.32228569280912 -22.782663918001177 -0.40192378864668404
    vertex 69.04582855750155 -29.782663918001166 -0.10222252113279491
    vertex 69.04582855750155 -22.782663918001177 -0.10222252113279491
  endloop
endfacet
facet normal -0.13052619222005035 -0.0 0.9914448613738107
  outer loop
    vertex 69.82228569280912 -29.782663918001166 0.0
    vertex 69.04582855750155 -22.782663918001177 -0.10222252113279491
    vertex 69.04582855750155 -29.782663918001166 -0.10222252113279491
  endloop
endfacet
facet normal -0.2588190451025224 0.0 0.9659258262890679
  outer loop
    vertex 69.04582855750155 -22.782663918001177 -0.10222252113279491
    vertex 69.82228569280912 -29.782663918001166 0.0
    vertex 69.82228569280912 -22.782663918001177 0.0
  endloop
endfacet
facet normal -0.9659258262890668 0.0 0.2588190451025266
  outer loop
    vertex 66.9245082139419 -59.182663918001154 -2.2235428646924373
    vertex 66.8222856928091 -66.82332691800119 -3.0
    vertex 66.9245082139419 -66.82332691800119 -2.2235428646924373
  endloop
endfacet
facet normal -0.9914448613738096 0.0 0.1305261922200587
  outer loop
    vertex 66.8222856928091 -66.82332691800119 -3.0
    vertex 66.9245082139419 -59.182663918001154 -2.2235428646924373
    vertex 66.8222856928091 -59.182663918001154 -3.0
  endloop
endfacet
facet normal -0.8660254037844369 0.0 0.500000000000003
  outer loop
    vertex 67.2242094814558 -59.182663918001154 -1.4999999999999998
    vertex 66.9245082139419 -66.82332691800119 -2.2235428646924373
    vertex 67.2242094814558 -66.82332691800119 -1.4999999999999998
  endloop
endfacet
facet normal -0.9659258262890668 0.0 0.2588190451025266
  outer loop
    vertex 66.9245082139419 -66.82332691800119 -2.2235428646924373
    vertex 67.2242094814558 -59.182663918001154 -1.4999999999999998
    vertex 66.9245082139419 -59.182663918001154 -2.2235428646924373
  endloop
endfacet
facet normal -0.7071067811865477 0.0 0.7071067811865476
  outer loop
    vertex 67.70096534924947 -59.182663918001154 -0.8786796564403572
    vertex 67.2242094814558 -66.82332691800119 -1.4999999999999998
    vertex 67.70096534924947 -66.82332691800119 -0.8786796564403572
  endloop
endfacet
facet normal -0.8660254037844369 0.0 0.500000000000003
  outer loop
    vertex 67.2242094814558 -66.82332691800119 -1.4999999999999998
    vertex 67.70096534924947 -59.182663918001154 -0.8786796564403572
    vertex 67.2242094814558 -59.182663918001154 -1.4999999999999998
  endloop
endfacet
facet normal -0.5000000000000029 0.0 0.8660254037844369
  outer loop
    vertex 68.32228569280912 -29.782663918001166 -0.40192378864668404
    vertex 67.70096534924947 -22.782663918001177 -0.8786796564403572
    vertex 67.70096534924947 -29.782663918001166 -0.8786796564403572
  endloop
endfacet
facet normal -0.7071067811865477 0.0 0.7071067811865476
  outer loop
    vertex 67.70096534924947 -22.782663918001177 -0.8786796564403572
    vertex 68.32228569280912 -29.782663918001166 -0.40192378864668404
    vertex 68.32228569280912 -22.782663918001177 -0.40192378864668404
  endloop
endfacet
facet normal 0.0 -1.0 0.0
  outer loop
    vertex 66.9245082139419 -59.182663918001154 -2.2235428646924373
    vertex 66.8222856928091 -59.182663918001154 0.0
    vertex 66.8222856928091 -59.182663918001154 -3.0
  endloop
endfacet
facet normal 0.0 -1.0 0.0
  outer loop
    vertex 66.8222856928091 -59.182663918001154 0.0
    vertex 66.9245082139419 -59.182663918001154 -2.2235428646924373
    vertex 67.2242094814558 -59.182663918001154 -1.4999999999999998
  endloop
endfacet
facet normal 0.0 -1.0 0.0
  outer loop
    vertex 66.8222856928091 -59.182663918001154 0.0
    vertex 67.2242094814558 -59.182663918001154 -1.4999999999999998
    vertex 67.70096534924947 -59.182663918001154 -0.8786796564403572
  endloop
endfacet
facet normal 0.0 -1.0 0.0
  outer loop
    vertex 66.8222856928091 -59.182663918001154 0.0
    vertex 67.70096534924947 -59.182663918001154 -0.8786796564403572
    vertex 68.32228569280912 -59.182663918001154 -0.40192378864668404
  endloop
endfacet
facet normal 0.0 -1.0 0.0
  outer loop
    vertex 66.8222856928091 -59.182663918001154 0.0
    vertex 68.32228569280912 -59.182663918001154 -0.40192378864668404
    vertex 69.04582855750155 -59.182663918001154 -0.10222252113279491
  endloop
endfacet
facet normal 0.0 -1.0 0.0
  outer loop
    vertex 66.8222856928091 -59.182663918001154 0.0
    vertex 69.04582855750155 -59.182663918001154 -0.10222252113279491
    vertex 69.82228569280912 -59.182663918001154 0.0
  endloop
endfacet
facet normal -0.0 1.0 -0.0
  outer loop
    vertex 66.8222856928091 -29.782663918001166 0.0
    vertex 66.9245082139419 -29.782663918001166 -2.2235428646924373
    vertex 66.8222856928091 -29.782663918001166 -3.0
  endloop
endfacet
facet normal -0.0 1.0 -0.0
  outer loop
    vertex 66.9245082139419 -29.782663918001166 -2.2235428646924373
    vertex 66.8222856928091 -29.782663918001166 0.0
    vertex 67.2242094814558 -29.782663918001166 -1.4999999999999998
  endloop
endfacet
facet normal -0.0 1.0 -0.0
  outer loop
    vertex 67.2242094814558 -29.782663918001166 -1.4999999999999998
    vertex 66.8222856928091 -29.782663918001166 0.0
    vertex 67.70096534924947 -29.782663918001166 -0.8786796564403572
  endloop
endfacet
facet normal -0.0 1.0 -0.0
  outer loop
    vertex 67.70096534924947 -29.782663918001166 -0.8786796564403572
    vertex 66.8222856928091 -29.782663918001166 0.0
    vertex 68.32228569280912 -29.782663918001166 -0.40192378864668404
  endloop
endfacet
facet normal -0.0 1.0 -0.0
  outer loop
    vertex 68.32228569280912 -29.782663918001166 -0.40192378864668404
    vertex 66.8222856928091 -29.782663918001166 0.0
    vertex 69.04582855750155 -29.782663918001166 -0.10222252113279491
  endloop
endfacet
facet normal -0.0 1.0 -0.0
  outer loop
    vertex 69.04582855750155 -29.782663918001166 -0.10222252113279491
    vertex 66.8222856928091 -29.782663918001166 0.0
    vertex 69.82228569280912 -29.782663918001166 0.0
  endloop
endfacet
facet normal 0.0 -1.0 0.0
  outer loop
    vertex 79.8222856928091 -22.782663918001177 2.5
    vertex 69.82228569280912 -22.782663918001177 0.0
    vertex 79.8222856928091 -22.782663918001177 0.0
  endloop
endfacet
facet normal 0.0 -1.0 0.0
  outer loop
    vertex 66.8222856928091 -22.782663918001177 -3.0
    vertex 64.28953743876886 -22.782663918001177 -4.279595
    vertex 66.8222856928091 -22.782663918001177 -4.279595
  endloop
endfacet
facet normal 0.0 -1.0 0.0
  outer loop
    vertex 64.28953743876886 -22.782663918001177 -4.279595
    vertex 66.8222856928091 -22.782663918001177 -3.0
    vertex 64.28953743876886 -22.782663918001177 2.5
  endloop
endfacet
facet normal 0.0 -1.0 0.0
  outer loop
    vertex 64.28953743876886 -22.782663918001177 2.5
    vertex 66.8222856928091 -22.782663918001177 -3.0
    vertex 66.9245082139419 -22.782663918001177 -2.2235428646924373
  endloop
endfacet
facet normal 0.0 -1.0 0.0
  outer loop
    vertex 64.28953743876886 -22.782663918001177 2.5
    vertex 66.9245082139419 -22.782663918001177 -2.2235428646924373
    vertex 67.2242094814558 -22.782663918001177 -1.4999999999999998
  endloop
endfacet
facet normal 0.0 -1.0 0.0
  outer loop
    vertex 64.28953743876886 -22.782663918001177 2.5
    vertex 67.2242094814558 -22.782663918001177 -1.4999999999999998
    vertex 67.70096534924947 -22.782663918001177 -0.8786796564403572
  endloop
endfacet
facet normal 0.0 -1.0 0.0
  outer loop
    vertex 64.28953743876886 -22.782663918001177 2.5
    vertex 67.70096534924947 -22.782663918001177 -0.8786796564403572
    vertex 68.32228569280912 -22.782663918001177 -0.40192378864668404
  endloop
endfacet
facet normal 0.0 -1.0 0.0
  outer loop
    vertex 64.28953743876886 -22.782663918001177 2.5
    vertex 68.32228569280912 -22.782663918001177 -0.40192378864668404
    vertex 69.04582855750155 -22.782663918001177 -0.10222252113279491
  endloop
endfacet
facet normal 0.0 -1.0 0.0
  outer loop
    vertex 64.28953743876886 -22.782663918001177 2.5
    vertex 69.04582855750155 -22.782663918001177 -0.10222252113279491
    vertex 69.82228569280912 -22.782663918001177 0.0
  endloop
endfacet
facet normal 0.0 -1.0 0.0
  outer loop
    vertex 64.28953743876886 -22.782663918001177 2.5
    vertex 69.82228569280912 -22.782663918001177 0.0
    vertex 79.8222856928091 -22.782663918001177 2.5
  endloop
endfacet
endsolid all the parts TOGETHER
